<?xml version="1.0" ?><svg id="Layer_3" style="enable-background:new 0 0 64 64;" version="1.1" viewBox="0 0 64 64" xml:space="preserve" xmlns="http://www.w3.org/2000/svg" xmlns:xlink="http://www.w3.org/1999/xlink"><g><g><rect height="3" style="fill:#7AADF9;" width="2" x="31" y="2"/></g><g><rect height="3" style="fill:#7AADF9;" width="2" x="31" y="13"/></g><g><rect height="2" style="fill:#7AADF9;" width="3" x="25" y="8"/></g><g><rect height="2" style="fill:#7AADF9;" width="3" x="36" y="8"/></g><circle cx="32" cy="9" r="4" style="fill:#3279EA;"/><polyline points="21,30 24,30 22,21 19,19 15,19 12,21 10,30 13,30  " style="fill:#F6B940;"/><circle cx="17" cy="14" r="3" style="fill:#FBE1CA;"/><polyline points="13.444,30 13,32 14,47 20,47 21,32 20.556,30  " style="fill:#787FAA;"/><g><rect height="14" style="fill:#4C506E;" width="2" x="16" y="33"/></g><path d="M21,47h-4v3h5v-2C22,47.448,21.552,47,21,47z" style="fill:#FAD85D;"/><path d="M13,47h4v3h-5v-2C12,47.448,12.448,47,13,47z" style="fill:#F6B940;"/><polygon points="21.755,30 19.962,23.725 18.038,24.275 19.674,30 21,30  " style="fill:#FAD85D;"/><polygon points="12.245,30 13,30 14.326,30 15.962,24.275 14.038,23.725  " style="fill:#FAD85D;"/><polyline points="51,30 54,30 52,21 49,19 45,19 42,21 40,30 43,30  " style="fill:#F6B940;"/><circle cx="47" cy="14" r="3" style="fill:#FBE1CA;"/><polyline points="43.444,30 43,32 44,47 50,47 51,32 50.556,30  " style="fill:#787FAA;"/><g><rect height="14" style="fill:#4C506E;" width="2" x="46" y="33"/></g><path d="M51,47h-4v3h5v-2C52,47.448,51.552,47,51,47z" style="fill:#FAD85D;"/><path d="M43,47h4v3h-5v-2C42,47.448,42.448,47,43,47z" style="fill:#F6B940;"/><polyline points="36,37 39,37 37,27 34,25 30,25 27,27 25,37 28,37  " style="fill:#F6B940;"/><circle cx="32" cy="20" r="3" style="fill:#FBE1CA;"/><polygon points="36.581,37 34.977,29.783 33.023,30.217 34.531,37 36,37  " style="fill:#FAD85D;"/><polyline points="28.444,37 28,39 29,55 35,55 36,39 35.556,37  " style="fill:#787FAA;"/><polygon points="29.023,29.783 27.42,37 28,37 29.469,37 30.977,30.217  " style="fill:#FAD85D;"/><g><rect height="15" style="fill:#4C506E;" width="2" x="31" y="40"/></g><path d="M36,55h-4v3h5v-2C37,55.448,36.552,55,36,55z" style="fill:#FAD85D;"/><path d="M28,55h4v3h-5v-2C27,55.448,27.448,55,28,55z" style="fill:#F6B940;"/><polygon points="51.755,30 49.962,23.725 48.038,24.275 49.674,30 51,30  " style="fill:#FAD85D;"/><polygon points="42.245,30 43,30 44.326,30 45.962,24.275 44.038,23.725  " style="fill:#FAD85D;"/><g><path d="M32,14c-2.757,0-5-2.243-5-5s2.243-5,5-5s5,2.243,5,5S34.757,14,32,14z M32,6c-1.654,0-3,1.346-3,3    s1.346,3,3,3s3-1.346,3-3S33.654,6,32,6z" style="fill:#2862BE;"/></g><g><rect height="5.657" style="fill:#7AADF9;" transform="matrix(0.7071 -0.7071 0.7071 0.7071 4.2513 22.2635)" width="2" x="28" y="3.172"/></g><g><rect height="2" style="fill:#7AADF9;" transform="matrix(0.7071 -0.7071 0.7071 0.7071 6.0086 26.5061)" width="5.657" x="32.172" y="5"/></g><g><rect height="2" style="fill:#7AADF9;" transform="matrix(0.7071 -0.7071 0.7071 0.7071 0.0086 24.0208)" width="5.657" x="26.172" y="11"/></g><g><rect height="5.657" style="fill:#7AADF9;" transform="matrix(0.7071 -0.7071 0.7071 0.7071 1.766 28.2635)" width="2" x="34" y="9.172"/></g><g><rect height="2" style="fill:#D23F34;" transform="matrix(0.7071 -0.7071 0.7071 0.7071 -13.2548 32)" width="59.397" x="2.302" y="31"/></g><g><path d="M32,63C14.906,63,1,49.093,1,32S14.906,1,32,1s31,13.907,31,31S49.094,63,32,63z M32,3    C16.01,3,3,16.009,3,32s13.01,29,29,29s29-13.009,29-29S47.99,3,32,3z" style="fill:#B52F28;"/></g></g></svg>